<svg width="167" height="26" viewBox="0 0 167 26" fill="none" xmlns="http://www.w3.org/2000/svg">
<g clip-path="url(#clip0_255_346433)">
<path d="M9.6409 0L8.11742 4.18211L7.8187 5.04841H0.5V0H9.6409Z" fill="white"/>
<path d="M5.96662 10.067L5.54841 11.2917L4.14441 15.1154L2.32221 20.1638L0.5 25.1823V10.067H5.96662Z" fill="white"/>
<path d="M25.7124 4.54061V10.5748L23.6811 12.6061L25.1448 14.0997L25.7124 14.6374V20.582L25.115 21.1794L21.1121 25.2122H3.09912L4.92133 20.1638H19.0808V20.1937V20.1638L20.664 18.5806V16.7285L20.0964 16.1609L19.0808 15.1154H6.77341L8.59561 10.067H19.0808L20.0964 9.02145L20.664 8.48374V6.63167L19.0808 5.01857V5.04844H10.5672V4.60035L11.9413 0.866325L12.24 3.05176e-05H21.1718L25.1448 3.97304L25.7124 4.54061Z" fill="white"/>
<path d="M34.9732 19.6758V9.74853H38.3019V19.6758H34.9732ZM34.9732 5.75904H38.3019V8.52965H34.9732V5.75904ZM44.1124 8.3877V11.3933H50.9067C51.344 11.3933 51.6867 11.2432 51.9347 10.9429C52.186 10.6427 52.3116 10.2527 52.3116 9.77301C52.3116 9.34224 52.1876 9.00448 51.9396 8.75972C51.6916 8.51171 51.3408 8.3877 50.8872 8.3877H44.1124ZM40.7837 19.6758V5.75904H50.8088C51.8629 5.75904 52.7424 5.87326 53.4473 6.1017C54.1554 6.33013 54.6906 6.70216 55.0529 7.21777C55.4184 7.73013 55.6011 8.40728 55.6011 9.24923C55.6011 10.2968 55.4689 11.0245 55.2046 11.4324C54.9435 11.8371 54.5014 12.139 53.878 12.338C54.6613 12.5991 55.234 12.9532 55.5962 13.4003C55.9585 13.8441 56.1396 14.5718 56.1396 15.5835C56.1396 16.569 55.9715 17.3636 55.6354 17.9674C55.3025 18.5678 54.7934 19.0035 54.1081 19.2744C53.4261 19.542 52.5531 19.6758 51.4892 19.6758H40.7837ZM44.1124 13.8604V17.0471H50.7892C51.3799 17.0471 51.8172 16.9981 52.1011 16.9002C52.3883 16.8023 52.5792 16.6408 52.6739 16.4156C52.7685 16.1872 52.8158 15.8576 52.8158 15.4268C52.8158 15.0287 52.7734 14.7236 52.6885 14.5114C52.607 14.2961 52.4307 14.1345 52.1599 14.0268C51.889 13.9159 51.4713 13.8604 50.9067 13.8604H44.1319H44.1124ZM61.3675 19.6758H57.4808L64.8577 5.75904H69.7919L77.1101 19.6758H73.1989L71.4122 16.166H63.1738L61.3675 19.6758ZM64.5151 13.5422H70.071L67.4227 8.36812H67.2661L64.5151 13.5422ZM78.2409 19.6758V5.75904H81.5695V16.91H90.1702V19.6758H78.2409ZM95.1827 19.6758H91.296L98.6729 5.75904H103.607L110.925 19.6758H107.014L105.227 16.166H96.989L95.1827 19.6758ZM98.3303 13.5422H103.886L101.238 8.36812H101.081L98.3303 13.5422ZM112.174 19.6758V5.75904H117.769L126.252 16.91H126.712V5.75904H130.041V19.6758H124.328L115.962 8.52965H115.502V19.6758H112.174ZM143.585 19.6562H137.388C136.093 19.6562 135.079 19.5061 134.348 19.2058C133.617 18.9023 133.095 18.3965 132.782 17.6883C132.472 16.9802 132.317 15.9979 132.317 14.7415V10.7912C132.333 9.43361 132.504 8.39422 132.831 7.67302C133.16 6.94854 133.704 6.44272 134.461 6.15554C135.221 5.8651 136.305 5.71988 137.711 5.71988H143.184C144.375 5.71988 145.361 5.85368 146.141 6.12128C146.92 6.38561 147.524 6.86859 147.952 7.57022C148.382 8.26858 148.598 9.2427 148.598 10.4926H145.147C145.147 9.76158 144.951 9.24434 144.559 8.94084C144.171 8.63735 143.525 8.4856 142.621 8.4856H138.352C137.563 8.4856 136.983 8.53945 136.615 8.64714C136.249 8.75157 135.996 8.97021 135.856 9.30308C135.716 9.63594 135.645 10.1728 135.645 10.9136V14.3646C135.645 15.0564 135.735 15.5851 135.915 15.9506C136.094 16.3161 136.372 16.5641 136.747 16.6946C137.125 16.8252 137.654 16.8905 138.333 16.8905H142.601C143.267 16.8905 143.778 16.8382 144.134 16.7338C144.492 16.6294 144.754 16.4303 144.917 16.1366C145.083 15.8429 145.166 15.4121 145.166 14.8443H148.617C148.611 16.1203 148.471 17.0993 148.196 17.7814C147.926 18.4601 147.434 18.9431 146.723 19.2303C146.012 19.5142 144.966 19.6562 143.585 19.6562ZM150.928 19.6758V5.75904H165.143V8.3877H154.252V11.4373H164.801V13.8604H154.252V17.0471H165.143V19.6758H150.928Z" fill="white"/>
</g>
<defs>
<clipPath id="clip0_255_346433">
<rect width="166" height="25.3914" fill="white" transform="translate(0.5)"/>
</clipPath>
</defs>
</svg>
