<svg width="20" height="20" viewBox="0 0 20 20" fill="none" xmlns="http://www.w3.org/2000/svg">
<path d="M4.2672 8.15309C4.52892 7.34715 4.96005 6.60735 5.52891 5.98039C5.62511 5.87437 5.77603 5.83658 5.91115 5.88469L7.27062 6.36869C7.6392 6.49984 8.04476 6.30865 8.17647 5.94166C8.18942 5.90557 8.1994 5.8685 8.20629 5.83086L8.46529 4.41533C8.49104 4.27459 8.5996 4.16326 8.74013 4.13347C9.1513 4.04633 9.57289 4.00201 10 4.00201C10.4268 4.00201 10.8482 4.04628 11.2591 4.13331C11.3996 4.16307 11.5082 4.27433 11.534 4.41502L11.7937 5.8308C11.8639 6.21419 12.233 6.46831 12.618 6.3984C12.6559 6.39152 12.6931 6.38159 12.7293 6.36871L14.0888 5.88469C14.224 5.83658 14.3749 5.87437 14.4711 5.98039C15.04 6.60735 15.4711 7.34715 15.7328 8.15309C15.777 8.28905 15.7344 8.43811 15.625 8.53059L14.5231 9.46211C14.2247 9.71436 14.1882 10.1597 14.4416 10.4567C14.4665 10.4859 14.4937 10.5131 14.5231 10.5379L15.625 11.4694C15.7344 11.5619 15.777 11.7109 15.7328 11.8469C15.4711 12.6529 15.04 13.3927 14.4711 14.0196C14.3749 14.1256 14.224 14.1634 14.0888 14.1153L12.7294 13.6313C12.3608 13.5002 11.9552 13.6914 11.8235 14.0583C11.8106 14.0944 11.8006 14.1315 11.7937 14.1693L11.534 15.585C11.5082 15.7257 11.3996 15.8369 11.2591 15.8667C10.8482 15.9537 10.4268 15.998 10 15.998C9.57289 15.998 9.1513 15.9537 8.74013 15.8665C8.5996 15.8367 8.49104 15.7254 8.46529 15.5847L8.2063 14.1692C8.13608 13.7858 7.76701 13.5317 7.38196 13.6016C7.3441 13.6085 7.30687 13.6184 7.27068 13.6313L5.91115 14.1153C5.77603 14.1634 5.62511 14.1256 5.52891 14.0196C4.96005 13.3927 4.52892 12.6529 4.2672 11.8469C4.22305 11.7109 4.26562 11.5619 4.37502 11.4694L5.47693 10.5379C5.77528 10.2856 5.81177 9.84033 5.55843 9.54326C5.53352 9.51405 5.50626 9.48691 5.47694 9.46212L4.37502 8.53059C4.26562 8.43811 4.22305 8.28905 4.2672 8.15309ZM8.24988 9.99994C8.24988 10.9664 9.03338 11.7499 9.99988 11.7499C10.9664 11.7499 11.7499 10.9664 11.7499 9.99994C11.7499 9.03344 10.9664 8.24994 9.99988 8.24994C9.03338 8.24994 8.24988 9.03344 8.24988 9.99994Z" fill="white"/>
</svg>
