<svg xmlns="http://www.w3.org/2000/svg" width="16" height="16" viewBox="0 0 16 16" fill="none">
<path d="M3.5 1C2.11929 1 1 2.11929 1 3.5V4H15V3.5C15 2.11929 13.8807 1 12.5 1H3.5ZM15 5H1V12.5C1 13.8807 2.11929 15 3.5 15H12.5C13.8807 15 15 13.8807 15 12.5V5ZM6 8C6 8.55229 5.55228 9 5 9C4.44772 9 4 8.55229 4 8C4 7.44771 4.44772 7 5 7C5.55228 7 6 7.44771 6 8ZM5 12C4.44772 12 4 11.5523 4 11C4 10.4477 4.44772 10 5 10C5.55228 10 6 10.4477 6 11C6 11.5523 5.55228 12 5 12ZM9 8C9 8.55229 8.55229 9 8 9C7.44771 9 7 8.55229 7 8C7 7.44771 7.44771 7 8 7C8.55229 7 9 7.44771 9 8ZM8 12C7.44771 12 7 11.5523 7 11C7 10.4477 7.44771 10 8 10C8.55229 10 9 10.4477 9 11C9 11.5523 8.55229 12 8 12ZM12 8C12 8.55229 11.5523 9 11 9C10.4477 9 10 8.55229 10 8C10 7.44771 10.4477 7 11 7C11.5523 7 12 7.44771 12 8Z" fill="#14142B"/>
</svg>