<svg xmlns="http://www.w3.org/2000/svg" width="16" height="16" viewBox="0 0 16 16" fill="none">
  <path d="M3.5999 2.39844C2.93716 2.39844 2.3999 2.9357 2.3999 3.59844V12.3984C2.3999 13.0612 2.93716 13.5984 3.5999 13.5984H12.3999C13.0626 13.5984 13.5999 13.0612 13.5999 12.3984V3.59844C13.5999 2.9357 13.0626 2.39844 12.3999 2.39844H3.5999ZM7.48275 5.1156C7.63896 5.27182 7.63895 5.52508 7.48274 5.68129L6.08274 7.08122C5.93151 7.23244 5.68807 7.23795 5.53015 7.09372L4.93015 6.54572C4.76703 6.39674 4.75557 6.14373 4.90455 5.98061C5.05353 5.8175 5.30654 5.80604 5.46966 5.95502L5.78739 6.24521L6.91707 5.11559C7.07328 4.95938 7.32655 4.95939 7.48275 5.1156ZM7.48275 9.1156C7.63896 9.27182 7.63895 9.52508 7.48274 9.68129L6.08274 11.0812C5.93151 11.2324 5.68807 11.238 5.53015 11.0937L4.93015 10.5457C4.76703 10.3967 4.75557 10.1437 4.90455 9.98061C5.05353 9.8175 5.30654 9.80604 5.46966 9.95502L5.78739 10.2452L6.91707 9.11559C7.07328 8.95938 7.32655 8.95939 7.48275 9.1156ZM8.7999 9.59844H10.7999C11.0208 9.59844 11.1999 9.77752 11.1999 9.99844C11.1999 10.2194 11.0208 10.3984 10.7999 10.3984H8.7999C8.57899 10.3984 8.3999 10.2194 8.3999 9.99844C8.3999 9.77752 8.57899 9.59844 8.7999 9.59844ZM8.3999 5.99844C8.3999 5.77752 8.57899 5.59844 8.7999 5.59844H10.7999C11.0208 5.59844 11.1999 5.77752 11.1999 5.99844C11.1999 6.21935 11.0208 6.39844 10.7999 6.39844H8.7999C8.57899 6.39844 8.3999 6.21935 8.3999 5.99844Z" fill="#ADB5BD"/>
</svg>