<svg xmlns="http://www.w3.org/2000/svg" width="16" height="16" viewBox="0 0 16 16" fill="none">
  <path d="M7.9998 1.60156V5.20156C7.9998 5.8643 8.53706 6.40156 9.19981 6.40156H12.7998V13.2016C12.7998 13.8643 12.2625 14.4016 11.5998 14.4016H10.3998V10.4016C10.3998 9.51791 9.68346 8.80156 8.7998 8.80156H7.9998V8.00156C7.9998 7.11791 7.28346 6.40156 6.3998 6.40156H3.9998C3.70837 6.40156 3.43514 6.47948 3.1998 6.61561V2.80156C3.1998 2.13882 3.73706 1.60156 4.3998 1.60156H7.9998ZM8.7998 1.80156V5.20156C8.7998 5.42248 8.97889 5.60156 9.19981 5.60156H12.5998L8.7998 1.80156ZM3.1998 9.60156V8.40156C3.1998 7.73882 3.73706 7.20156 4.3998 7.20156H5.9998C6.66255 7.20156 7.1998 7.73882 7.1998 8.40156V9.60156H8.39981C9.06255 9.60156 9.59981 10.1388 9.59981 10.8016L9.5998 12.0016H7.1998V11.6016C7.1998 11.3806 7.02072 11.2016 6.7998 11.2016C6.57889 11.2016 6.3998 11.3806 6.3998 11.6016V12.0016H3.9998V11.6016C3.9998 11.3806 3.82072 11.2016 3.5998 11.2016C3.37889 11.2016 3.1998 11.3806 3.1998 11.6016V12.0016H0.799805V10.8016C0.799805 10.1388 1.33706 9.60156 1.9998 9.60156H3.1998ZM3.9998 8.40156V9.60156H6.3998V8.40156C6.3998 8.18065 6.22072 8.00156 5.9998 8.00156H4.3998C4.17889 8.00156 3.9998 8.18065 3.9998 8.40156ZM7.1998 12.8016H9.5998L9.59981 14.0016C9.59981 14.6643 9.06255 15.2016 8.39981 15.2016H1.9998C1.33706 15.2016 0.799805 14.6643 0.799805 14.0016V12.8016H3.1998V13.2016C3.1998 13.4225 3.37889 13.6016 3.5998 13.6016C3.82072 13.6016 3.9998 13.4225 3.9998 13.2016V12.8016H6.3998V13.2016C6.3998 13.4225 6.57889 13.6016 6.7998 13.6016C7.02072 13.6016 7.1998 13.4225 7.1998 13.2016V12.8016Z" fill="#ADB5BD"/>
</svg>