<svg xmlns="http://www.w3.org/2000/svg" width="16" height="16" viewBox="0 0 16 16" fill="none">
  <path d="M4 0H12C13.1046 0 14 0.895431 14 2L14 14C14 15.1046 13.1046 16 12 16H4C2.89543 16 2 15.1046 2 14V2C2 0.895431 2.89543 0 4 0ZM4 1C3.44772 1 3 1.44772 3 2V14C3 14.5523 3.44772 15 4 15H12C12.5523 15 13 14.5523 13 14L13 2C13 1.44771 12.5523 1 12 1L4 1ZM11 4.5C11 4.74546 10.8231 4.94961 10.5899 4.99194L10.5 5H5.5C5.22386 5 5 4.77614 5 4.5C5 4.25454 5.17688 4.05039 5.41012 4.00806L5.5 4H10.5C10.7761 4 11 4.22386 11 4.5ZM11 8C11 8.24546 10.8231 8.44961 10.5899 8.49194L10.5 8.5H5.5C5.22386 8.5 5 8.27614 5 8C5 7.75454 5.17688 7.55039 5.41012 7.50806L5.5 7.5H10.5C10.7761 7.5 11 7.72386 11 8ZM11 11.5C11 11.7455 10.8231 11.9496 10.5899 11.9919L10.5 12H5.5C5.22386 12 5 11.7761 5 11.5C5 11.2545 5.17688 11.0504 5.41012 11.0081L5.5 11H10.5C10.7761 11 11 11.2239 11 11.5Z" fill="#ADB5BD"/>
</svg>