<svg xmlns="http://www.w3.org/2000/svg" width="20" height="21" viewBox="0 0 20 21" fill="none">
  <path fill-rule="evenodd" clip-rule="evenodd" d="M11.6667 15.7845C11.6667 16.5336 10.9034 17.167 10 17.167C9.0967 17.167 8.33337 16.5336 8.33337 15.7845V15.5003H11.6667V15.7845ZM17.1009 13.1728L15.6 11.6703V7.94696C15.6 5.04613 13.515 2.5828 10.7492 2.21613C9.14837 2.00363 7.5317 2.49196 6.3192 3.5553C5.0992 4.62363 4.40004 6.16113 4.40004 7.7728L4.3992 11.6703L2.8992 13.1736C2.50837 13.5645 2.39254 14.1478 2.6042 14.6586C2.8167 15.1695 3.31087 15.5003 3.8642 15.5003H6.6667V15.7845C6.6667 17.4661 8.1617 18.8336 10 18.8336C11.8384 18.8336 13.3334 17.4661 13.3334 15.7845V15.5003H16.135C16.6884 15.5003 17.1825 15.1703 17.3942 14.6586C17.6067 14.1478 17.4909 13.5645 17.1009 13.1728Z" fill="white"/>
  <mask id="mask0_1229_32792" style="mask-type:luminance" maskUnits="userSpaceOnUse" x="2" y="2" width="16" height="17">
    <path fill-rule="evenodd" clip-rule="evenodd" d="M11.6667 15.7845C11.6667 16.5336 10.9034 17.167 10 17.167C9.0967 17.167 8.33337 16.5336 8.33337 15.7845V15.5003H11.6667V15.7845ZM17.1009 13.1728L15.6 11.6703V7.94696C15.6 5.04613 13.515 2.5828 10.7492 2.21613C9.14837 2.00363 7.5317 2.49196 6.3192 3.5553C5.0992 4.62363 4.40004 6.16113 4.40004 7.7728L4.3992 11.6703L2.8992 13.1736C2.50837 13.5645 2.39254 14.1478 2.6042 14.6586C2.8167 15.1695 3.31087 15.5003 3.8642 15.5003H6.6667V15.7845C6.6667 17.4661 8.1617 18.8336 10 18.8336C11.8384 18.8336 13.3334 17.4661 13.3334 15.7845V15.5003H16.135C16.6884 15.5003 17.1825 15.1703 17.3942 14.6586C17.6067 14.1478 17.4909 13.5645 17.1009 13.1728Z" fill="white"/>
  </mask>
  <g mask="url(#mask0_1229_32792)">
  </g>
</svg>