<svg xmlns="http://www.w3.org/2000/svg" width="20" height="20" viewBox="0 0 20 20" fill="none">
  <path fill-rule="evenodd" clip-rule="evenodd" d="M11.2676 9.5004L16.6338 4.13426C17.1225 3.64552 17.1225 2.85554 16.6338 2.3668C16.145 1.87806 15.355 1.87806 14.8663 2.3668L9.50016 7.73294L4.13402 2.3668C3.64528 1.87806 2.85529 1.87806 2.36655 2.3668C1.87782 2.85554 1.87782 3.64552 2.36655 4.13426L7.73269 9.5004L2.36655 14.8665C1.87782 15.3553 1.87782 16.1453 2.36655 16.634C2.6103 16.8777 2.93029 17.0002 3.25029 17.0002C3.57028 17.0002 3.89027 16.8777 4.13402 16.634L9.50016 11.2679L14.8663 16.634C15.11 16.8777 15.43 17.0002 15.75 17.0002C16.07 17.0002 16.39 16.8777 16.6338 16.634C17.1225 16.1453 17.1225 15.3553 16.6338 14.8665L11.2676 9.5004Z" fill="#4E5969"/>
  <mask id="mask0_1190_51129" style="mask-type:luminance" maskUnits="userSpaceOnUse" x="2" y="2" width="15" height="15">
    <path fill-rule="evenodd" clip-rule="evenodd" d="M11.2674 9.5L16.6335 4.13397C17.1222 3.64524 17.1222 2.85528 16.6335 2.36655C16.1447 1.87782 15.3548 1.87782 14.866 2.36655L9.5 7.73257L4.13397 2.36655C3.64524 1.87782 2.85528 1.87782 2.36655 2.36655C1.87782 2.85528 1.87782 3.64524 2.36655 4.13397L7.73257 9.5L2.36655 14.866C1.87782 15.3548 1.87782 16.1447 2.36655 16.6335C2.61029 16.8772 2.93027 16.9997 3.25026 16.9997C3.57025 16.9997 3.89023 16.8772 4.13397 16.6335L9.5 11.2674L14.866 16.6335C15.1098 16.8772 15.4298 16.9997 15.7497 16.9997C16.0697 16.9997 16.3897 16.8772 16.6335 16.6335C17.1222 16.1447 17.1222 15.3548 16.6335 14.866L11.2674 9.5Z" fill="white"/>
  </mask>
  <g mask="url(#mask0_1190_51129)">
  </g>
</svg>