<svg xmlns="http://www.w3.org/2000/svg" width="24" height="24" viewBox="0 0 24 24" fill="none">
  <path d="M20.2525 4.00366C21.219 4.00366 22.0025 4.78716 22.0025 5.75366V18.2488C22.0025 19.2153 21.219 19.9988 20.2525 19.9988H13.0049C12.9181 19.9988 12.8328 19.9925 12.7494 19.9803L12.7493 4.02219C12.8327 4.00998 12.9181 4.00366 13.0049 4.00366H20.2525ZM11.0049 4.00122C11.0882 4.00122 11.1702 4.00705 11.2505 4.01831L11.2502 19.9793C11.17 19.9905 11.0881 19.9963 11.0049 19.9963H3.75732C2.79083 19.9963 2.00732 19.2128 2.00732 18.2463V5.75122C2.00732 4.78472 2.79083 4.00122 3.75732 4.00122H11.0049Z" fill="#6C757D"/>
</svg>