<svg xmlns="http://www.w3.org/2000/svg" width="24" height="24" viewBox="0 0 24 24" fill="none">
<path d="M12.7549 4.00122L12.7543 4.00322L20.2525 4.00366C21.219 4.00366 22.0025 4.78716 22.0025 5.75366V18.2488C22.0025 19.2153 21.219 19.9988 20.2525 19.9988H11.2549L11.2543 19.9962L3.75732 19.9963C2.79083 19.9963 2.00732 19.2128 2.00732 18.2463V5.75122C2.00732 4.78472 2.79083 4.00122 3.75732 4.00122H12.7549ZM20.2525 5.50366H12.7549V18.4988H20.2525C20.3905 18.4988 20.5025 18.3869 20.5025 18.2488V5.75366C20.5025 5.61559 20.3905 5.50366 20.2525 5.50366ZM11.2549 5.50122H3.75732C3.61925 5.50122 3.50732 5.61315 3.50732 5.75122V18.2463C3.50732 18.3844 3.61925 18.4963 3.75732 18.4963H11.2549V5.50122Z" fill="#6C757D"/>
</svg>