<svg width="40" height="40" viewBox="0 0 40 40" fill="none" xmlns="http://www.w3.org/2000/svg">
<rect width="40" height="40" rx="8" fill="#E9ECEF"/>
<path d="M26.5999 10.1001C27.6999 10.1001 28.5999 11.0001 28.5999 12.1001V14.3001C28.5999 15.1001 28.0999 16.1001 27.5999 16.6001L23.2999 20.4001C22.6999 20.9001 22.2999 21.9001 22.2999 22.7001V27.0001C22.2999 27.6001 21.8999 28.4001 21.3999 28.7001L19.9999 29.6001C18.6999 30.4001 16.8999 29.5001 16.8999 27.9001V22.6001C16.8999 21.9001 16.4999 21.0001 16.0999 20.5001L12.2999 16.5001C11.7999 16.0001 11.3999 15.1001 11.3999 14.5001V12.2001C11.3999 11.0001 12.2999 10.1001 13.3999 10.1001H22.3999" stroke="#495057" stroke-width="1.5" stroke-miterlimit="10" stroke-linecap="round" stroke-linejoin="round"/>
<path d="M18.93 10.1001L14 18.0001" stroke="#495057" stroke-width="1.5" stroke-miterlimit="10" stroke-linecap="round" stroke-linejoin="round"/>
</svg>
