<svg xmlns="http://www.w3.org/2000/svg" width="32" height="32" viewBox="0 0 32 32" fill="none">
  <path d="M16.565 10.5H21.5C22.7703 10.5 23.8192 11.4474 23.9789 12.6741L23.9947 12.8356L24 13L24 20.5C24 21.8255 22.9685 22.91 21.6644 22.9947L21.5 23H10.5C9.17452 23 8.08996 21.9685 8.00532 20.6644L8 20.5L8 13.5H13.0707L13.2239 13.4922C13.5278 13.461 13.8151 13.3376 14.047 13.1388L14.1582 13.0331L16.565 10.5ZM13.1667 9C13.4371 9 13.7015 9.0731 13.9324 9.21016L14.0667 9.3L15.385 10.289L13.4332 12.3444L13.3724 12.3987C13.3077 12.4477 13.232 12.4802 13.152 12.4934L13.0707 12.5H8V11.5C8 10.1745 9.03154 9.08996 10.3356 9.00532L10.5 9H13.1667Z" fill="#FFC107"/>
</svg>