<svg xmlns="http://www.w3.org/2000/svg" width="20" height="21" viewBox="0 0 20 21" fill="none">
<path d="M3.25 2.5H16.75C18.483 2.5 19.8992 3.85645 19.9949 5.56558L20 5.75V15.25C20 16.983 18.6435 18.3992 16.9344 18.4949L16.75 18.5H3.25C1.51697 18.5 0.100754 17.1435 0.00514483 15.4344L0 15.25V5.75C0 4.01697 1.35645 2.60075 3.06558 2.50514L3.25 2.5H16.75H3.25ZM18.5 7.873L10.3493 12.1637C10.1619 12.2623 9.94313 12.2764 9.74676 12.206L9.65069 12.1637L1.5 7.874V15.25C1.5 16.1682 2.20711 16.9212 3.10647 16.9942L3.25 17H16.75C17.6682 17 18.4212 16.2929 18.4942 15.3935L18.5 15.25V7.873ZM16.75 4H3.25C2.33183 4 1.57881 4.70711 1.5058 5.60647L1.5 5.75V6.179L10 10.6525L18.5 6.178V5.75C18.5 4.83183 17.7929 4.07881 16.8935 4.0058L16.75 4Z" fill="white"/>
</svg>