<svg xmlns="http://www.w3.org/2000/svg" width="20" height="21" viewBox="0 0 20 21" fill="none">
  <path d="M5.58301 12.2667L7.34595 10.1516C7.90797 9.4773 8.18898 9.14015 8.52801 9.14015C8.86704 9.14015 9.14805 9.4773 9.71007 10.1516L10.2909 10.8485C10.853 11.5228 11.134 11.8599 11.473 11.8599C11.812 11.8599 12.093 11.5228 12.6551 10.8485L14.418 8.7334" stroke="white" stroke-width="1.5" stroke-linecap="round" stroke-linejoin="round"/>
  <path d="M10 19.3332C14.8795 19.3332 18.835 15.3784 18.835 10.5C18.835 5.62152 14.8795 1.66675 10 1.66675C5.1206 1.66675 1.16504 5.62152 1.16504 10.5C1.16504 11.718 1.4116 12.8784 1.85755 13.934C2.104 14.5175 2.22723 14.8092 2.24249 15.0296C2.25775 15.2501 2.19285 15.4926 2.06304 15.9777L1.16504 19.3332L4.52125 18.4354C5.00639 18.3056 5.24896 18.2407 5.46947 18.256C5.68998 18.2712 5.98175 18.3944 6.5653 18.6408C7.62117 19.0867 8.78181 19.3332 10 19.3332Z" stroke="white" stroke-width="1.5" stroke-linejoin="round"/>
</svg>