<svg xmlns="http://www.w3.org/2000/svg" width="28" height="29" viewBox="0 0 28 29" fill="#ffffff">
  <path d="M10.149 0.5L8.46854 5.14333L8.12214 6.10147H0V0.5H10.149Z" fill="#ffffff"/>
  <path d="M6.08792 11.7029L5.60147 13.0369L4.0537 17.297L2.01948 22.8985L0 28.4631V11.7029H6.08792Z" fill="#ffffff"/>
  <path d="M28 5.54133V12.241L25.7447 14.4963L27.3956 16.1546L28 16.759V23.3702L27.3514 24.0262L22.9071 28.5H2.88916L4.92338 22.8985H20.6296V22.9206L20.6517 22.8985L22.3985 21.1518V19.0733L21.7794 18.4542L20.6296 17.3044V17.2971H6.9576L8.99182 11.7029H20.6296V11.6882L21.7794 10.5384L22.3985 9.91932V7.85562L20.6296 6.08673V6.10147H11.2029V5.61503L12.7065 1.46552L13.0603 0.5H22.966L27.3882 4.92959L28 5.54133Z" fill="#ffffff"/>
</svg>