<svg xmlns="http://www.w3.org/2000/svg" width="32" height="32" viewBox="0 0 32 32" fill="none">
  <rect width="32" height="32" rx="4" fill="#ADB5BD"/>
  <path d="M8 11.5003C7.99982 10.1195 9.11916 9 10.5 9H13.164C13.4885 9 13.8043 9.10525 14.0639 9.29995L15.6642 10.5H20.4956C21.8763 10.5 22.9956 11.6193 22.9956 13V13.0021L11.8236 13.0021C11.1058 13.0021 10.4886 13.5106 10.3513 14.2151L8.77417 22.3051C8.29794 21.85 8.00128 21.2085 8.00118 20.4978L8 11.5003ZM9.77323 22.4065C9.71305 22.7152 9.94946 23.0021 10.264 23.0021H21.1798C21.8982 23.0021 22.5157 22.4929 22.6524 21.7877L24.0467 14.5973C24.1065 14.2887 23.8702 14.0021 23.5558 14.0021L11.8236 14.0021C11.5843 14.0021 11.3786 14.1716 11.3328 14.4065L9.77323 22.4065Z" fill="#F8F9FA"/>
</svg>