<svg xmlns="http://www.w3.org/2000/svg" width="12" height="12" viewBox="0 0 12 12" fill="none">
<g clip-path="url(#clip0_769_315128)">
<path d="M8.80668 7.75807C9.53291 6.76709 9.85817 5.53844 9.71741 4.31794C9.57665 3.09743 8.98024 1.97508 8.04751 1.17542C7.11477 0.375766 5.9145 -0.042222 4.68681 0.00508291C3.45913 0.0523878 2.29457 0.561497 1.42614 1.43056C0.557699 2.29962 0.049423 3.46453 0.00299662 4.69225C-0.0434297 5.91997 0.375417 7.11995 1.17574 8.05211C1.97606 8.98427 3.09884 9.57988 4.31945 9.71976C5.54006 9.85965 6.76847 9.53351 7.75893 8.80657H7.75818C7.78068 8.83657 7.80469 8.86508 7.83169 8.89283L10.7192 11.7803C10.8598 11.9211 11.0506 12.0002 11.2495 12.0002C11.4485 12.0003 11.6393 11.9213 11.7801 11.7807C11.9208 11.6401 11.9999 11.4493 12 11.2503C12 11.0514 11.9211 10.8606 11.7804 10.7198L8.89293 7.83232C8.86612 7.80518 8.83729 7.78011 8.80668 7.75733V7.75807ZM9.00019 4.87508C9.00019 5.41678 8.89349 5.95318 8.68619 6.45364C8.47889 6.95411 8.17504 7.40885 7.792 7.79189C7.40896 8.17493 6.95422 8.47878 6.45375 8.68608C5.95329 8.89338 5.41689 9.00008 4.87519 9.00008C4.33348 9.00008 3.79708 8.89338 3.29662 8.68608C2.79615 8.47878 2.34141 8.17493 1.95837 7.79189C1.57533 7.40885 1.27148 6.95411 1.06418 6.45364C0.856881 5.95318 0.750185 5.41678 0.750185 4.87508C0.750185 3.78106 1.18478 2.73185 1.95837 1.95826C2.73196 1.18467 3.78117 0.750075 4.87519 0.750075C5.9692 0.750075 7.01841 1.18467 7.792 1.95826C8.56559 2.73185 9.00019 3.78106 9.00019 4.87508Z" fill="#ADB5BD"/>
</g>
<defs>
<clipPath id="clip0_769_315128">
<rect width="12" height="12" fill="white"/>
</clipPath>
</defs>
</svg>