<svg xmlns="http://www.w3.org/2000/svg" width="20" height="21" viewBox="0 0 20 21" fill="none">
<path d="M16.1918 11.3166C16.2251 11.05 16.2501 10.7833 16.2501 10.5C16.2501 10.2166 16.2251 9.94996 16.1918 9.68329L17.9501 8.30829C18.1084 8.18329 18.1501 7.95829 18.0501 7.77496L16.3834 4.89163C16.2834 4.70829 16.0584 4.64163 15.8751 4.70829L13.8001 5.54163C13.3668 5.20829 12.9001 4.93329 12.3918 4.72496L12.0751 2.51663C12.0501 2.31663 11.8751 2.16663 11.6668 2.16663H8.33344C8.12511 2.16663 7.95011 2.31663 7.92511 2.51663L7.60844 4.72496C7.10011 4.93329 6.63344 5.21663 6.20011 5.54163L4.12511 4.70829C3.93344 4.63329 3.71678 4.70829 3.61678 4.89163L1.95011 7.77496C1.84178 7.95829 1.89178 8.18329 2.05011 8.30829L3.80844 9.68329C3.77511 9.94996 3.75011 10.225 3.75011 10.5C3.75011 10.775 3.77511 11.05 3.80844 11.3166L2.05011 12.6916C1.89178 12.8166 1.85011 13.0416 1.95011 13.225L3.61678 16.1083C3.71678 16.2916 3.94178 16.3583 4.12511 16.2916L6.20011 15.4583C6.63344 15.7916 7.10011 16.0666 7.60844 16.275L7.92511 18.4833C7.95011 18.6833 8.12511 18.8333 8.33344 18.8333H11.6668C11.8751 18.8333 12.0501 18.6833 12.0751 18.4833L12.3918 16.275C12.9001 16.0666 13.3668 15.7833 13.8001 15.4583L15.8751 16.2916C16.0668 16.3666 16.2834 16.2916 16.3834 16.1083L18.0501 13.225C18.1501 13.0416 18.1084 12.8166 17.9501 12.6916L16.1918 11.3166ZM10.0001 13.4166C8.39178 13.4166 7.08344 12.1083 7.08344 10.5C7.08344 8.89163 8.39178 7.58329 10.0001 7.58329C11.6084 7.58329 12.9168 8.89163 12.9168 10.5C12.9168 12.1083 11.6084 13.4166 10.0001 13.4166Z" fill="white"/>
</svg>