<svg xmlns="http://www.w3.org/2000/svg" width="18" height="18" viewBox="0 0 18 18" fill="none">
    <path
        d="M0.428711 1.25C0.428711 0.835786 0.764497 0.5 1.17871 0.5H1.73697C2.68744 0.5 3.25653 1.13899 3.58196 1.73299C3.79888 2.12894 3.95579 2.58818 4.07853 3.00395C4.11178 3.00134 4.14545 3 4.17951 3H16.6768C17.507 3 18.1065 3.79442 17.8789 4.5928L16.0512 11.0019C15.7143 12.1832 14.6349 12.9978 13.4066 12.9978H7.45848C6.22 12.9978 5.13431 12.1699 4.80654 10.9756L4.04605 8.20455L2.78745 3.95578L2.78541 3.94834C2.62971 3.38051 2.48358 2.85005 2.26644 2.4537C2.05557 2.0688 1.88748 2 1.73697 2H1.17871C0.764497 2 0.428711 1.66421 0.428711 1.25ZM6.92871 18C8.03328 18 8.92871 17.1046 8.92871 16C8.92871 14.8954 8.03328 14 6.92871 14C5.82414 14 4.92871 14.8954 4.92871 16C4.92871 17.1046 5.82414 18 6.92871 18ZM13.9287 18C15.0333 18 15.9287 17.1046 15.9287 16C15.9287 14.8954 15.0333 14 13.9287 14C12.8241 14 11.9287 14.8954 11.9287 16C11.9287 17.1046 12.8241 18 13.9287 18Z"
        fill="#495057" />
</svg>