<svg xmlns="http://www.w3.org/2000/svg" width="20" height="21" viewBox="0 0 20 21" fill="#198754">
  <path d="M12.4747 8.51419C12.9876 8.51419 13.4102 8.90023 13.468 9.39757L13.4747 9.51419V13.8816C13.4747 15.8059 11.9148 17.3658 9.99044 17.3658C8.13027 17.3658 6.61056 15.9081 6.51131 14.0727L6.50616 13.8816V9.51419C6.50616 9.00135 6.8922 8.57868 7.38954 8.52092L7.50616 8.51419H12.4747ZM12.4747 9.51419H7.50616V13.8816C7.50616 15.2536 8.61841 16.3658 9.99044 16.3658C11.3076 16.3658 12.3853 15.3408 12.4694 14.0449L12.4747 13.8816V9.51419ZM5.77407 8.51359C5.63208 8.75885 5.54069 9.03706 5.51417 9.33394L5.50616 9.51419H3.01685V13.2533C3.01685 14.2785 3.84793 15.1096 4.87312 15.1096C5.14433 15.1096 5.40196 15.0514 5.63421 14.9469C5.71347 15.2755 5.83005 15.5906 5.9785 15.887C5.63887 16.0306 5.26522 16.1096 4.87312 16.1096C3.35198 16.1096 2.10857 14.9205 2.02169 13.4211L2.01685 13.2533V9.51419C2.01685 9.00135 2.40289 8.57868 2.90022 8.52092L3.01685 8.51419L5.77407 8.51359ZM14.2068 8.51359L16.9912 8.51419C17.504 8.51419 17.9267 8.90023 17.9844 9.39757L17.9912 9.51419V13.2541C17.9912 14.8311 16.7127 16.1096 15.1357 16.1096C14.7348 16.1096 14.3532 16.027 14.0069 15.8778C14.1551 15.5801 14.2709 15.2647 14.3503 14.935C14.5887 15.0472 14.8549 15.1096 15.1357 15.1096C16.1116 15.1096 16.9116 14.3561 16.9856 13.3991L16.9912 13.2541V9.51419H14.4747L14.4692 9.36493C14.4465 9.05642 14.3537 8.76737 14.2068 8.51359ZM9.98857 3.48914C11.2187 3.48914 12.2159 4.48636 12.2159 5.7165C12.2159 6.94664 11.2187 7.94386 9.98857 7.94386C8.75843 7.94386 7.76121 6.94664 7.76121 5.7165C7.76121 4.48636 8.75843 3.48914 9.98857 3.48914ZM14.9757 4.11727C16.0324 4.11727 16.889 4.97388 16.889 6.03056C16.889 7.08725 16.0324 7.94386 14.9757 7.94386C13.9191 7.94386 13.0624 7.08725 13.0624 6.03056C13.0624 4.97388 13.9191 4.11727 14.9757 4.11727ZM5.01717 4.11727C6.07386 4.11727 6.93047 4.97388 6.93047 6.03056C6.93047 7.08725 6.07386 7.94386 5.01717 7.94386C3.96049 7.94386 3.10388 7.08725 3.10388 6.03056C3.10388 4.97388 3.96049 4.11727 5.01717 4.11727ZM9.98857 4.48914C9.31072 4.48914 8.76121 5.03864 8.76121 5.7165C8.76121 6.39435 9.31072 6.94386 9.98857 6.94386C10.6664 6.94386 11.2159 6.39435 11.2159 5.7165C11.2159 5.03864 10.6664 4.48914 9.98857 4.48914ZM14.9757 5.11727C14.4713 5.11727 14.0624 5.52616 14.0624 6.03056C14.0624 6.53496 14.4713 6.94386 14.9757 6.94386C15.4801 6.94386 15.889 6.53496 15.889 6.03056C15.889 5.52616 15.4801 5.11727 14.9757 5.11727ZM5.01717 5.11727C4.51277 5.11727 4.10388 5.52616 4.10388 6.03056C4.10388 6.53496 4.51277 6.94386 5.01717 6.94386C5.52157 6.94386 5.93047 6.53496 5.93047 6.03056C5.93047 5.52616 5.52157 5.11727 5.01717 5.11727Z" fill="#198754"/>
</svg>