<svg width="48" height="32" viewBox="0 0 48 32" fill="none" xmlns="http://www.w3.org/2000/svg">
<g id="VowyOW.tif">
<path id="Vector" d="M23.753 0C23.5891 0.188429 23.3761 0.25397 23.1385 0.25397C22.0897 0.25397 21.2458 0.753716 20.3691 1.25346C19.7792 1.58936 19.2958 2.01537 18.8205 2.45777C17.9438 3.27703 17.2966 4.25194 16.7886 5.34975C16.2724 6.46393 16.0184 7.6027 16.0266 8.8152C16.043 10.8879 16.6902 12.7394 18.0258 14.3452C19.0172 15.5413 20.2216 16.5244 21.3032 17.6304C22.0242 18.3677 22.7616 19.0805 23.4826 19.8178C25.8505 22.2592 28.2758 24.6432 30.6519 27.0764C31.7744 28.2234 32.9051 29.354 34.1751 30.3289C34.8388 30.845 35.6171 31.1481 36.4283 31.4103C37.4525 31.738 38.4767 31.9756 39.5418 31.8609C41.1313 31.697 42.6144 31.2383 43.9581 30.3125C44.9905 29.5997 45.8918 28.7641 46.5308 27.7155C46.9569 27.0273 47.2764 26.2654 47.4895 25.4379C47.8582 24.0288 47.8008 22.6361 47.6533 21.2515C47.555 20.3503 47.1781 19.4655 46.6865 18.6381C46.1867 17.7779 45.6296 16.9832 44.8921 16.3442C44.1384 15.7051 43.2944 15.2054 42.3604 14.804C40.7217 14.0912 39.0174 14.1813 37.3542 14.3616C36.1006 14.4927 34.9125 15.0252 33.8801 15.8526C33.3312 16.295 32.7986 16.6964 32.4627 17.3355C31.9547 18.3186 32.3316 19.8014 33.323 20.3094C34.7732 21.0549 35.5352 20.6535 36.5102 19.8178C37.0592 19.3426 37.6983 19.0887 38.4193 18.9986C40.1891 18.7937 41.5902 19.359 42.5406 20.9156C43.024 21.7185 43.1797 22.5787 43.0896 23.5045C42.9257 25.1921 41.8442 26.1998 40.4513 26.9044C40.017 27.1256 39.4025 27.0027 38.8618 27.0437C37.3787 27.1584 36.502 26.1589 35.5762 25.2577C34.085 23.7994 32.6101 22.3166 31.1435 20.8419C30.1029 19.7932 29.1279 18.6791 28.0382 17.6959C26.9239 16.6883 25.9407 15.5495 24.8427 14.5254C23.6301 13.3948 22.5076 12.1823 21.3605 10.978C21.1803 10.7896 21.041 10.5193 21 10.2653C20.8935 9.48699 20.6231 8.79062 20.8771 7.90583C21.1967 6.80802 21.7702 6.03792 22.6141 5.3989C22.9419 5.15312 23.3188 4.89915 23.7694 4.9565C24.2446 5.01385 24.6379 4.59603 25.0967 4.72711C25.8669 4.94831 26.6863 5.02204 27.3172 5.61191C27.9481 6.20177 28.4479 6.82441 28.7101 7.70101C29.2181 9.40507 28.6609 10.7486 27.5384 11.9611C26.7682 12.7886 26.7436 14.0666 27.4974 14.935C28.2185 15.7707 29.1689 16.1721 29.7998 15.91C30.4389 15.6396 31.0042 15.2464 31.4467 14.722C32.1923 13.8372 32.7412 12.8623 33.1099 11.7399C33.5278 10.4947 33.7081 9.26579 33.6261 7.97137C33.5852 7.29138 33.2902 6.68513 33.1427 6.03792C32.8723 4.85 32.1677 3.94062 31.4467 3.02306C30.8977 2.32669 30.1439 1.89248 29.4557 1.36816C28.7756 0.852027 27.9563 0.729138 27.2352 0.344088C27.0632 0.25397 26.8256 0.294932 26.6207 0.278547C26.3585 0.25397 26.0718 0.327703 25.9161 0.0163851H23.7366L23.753 0Z" fill="white"/>
<path id="Vector_2" d="M0.268614 23.3815C0.153906 23.914 0.325972 24.766 0.604549 25.5607C0.858547 26.2735 1.19448 26.9616 1.60415 27.6334C2.25963 28.7067 3.17729 29.4931 4.09496 30.255C5.06179 31.0497 6.24984 31.4594 7.50344 31.7215C8.20808 31.869 8.90453 31.9755 9.58458 31.8608C10.9037 31.6396 12.2065 31.361 13.3863 30.6319C14.091 30.1977 14.7874 29.7635 15.3446 29.1654C16.549 27.871 16.1967 26.1506 14.771 25.3805C13.9189 24.9217 12.9275 24.9381 12.0017 25.8393C11.1823 26.6339 10.2155 27.06 9.02743 27.0272C7.25764 26.9698 5.84017 26.0277 5.25844 24.3236C4.5456 22.2427 5.20108 20.8336 6.72507 19.6539C7.75744 18.851 9.05201 18.81 10.3712 19.2115C11.7313 19.6211 12.5752 20.6616 13.4765 21.5955C15.0496 23.2258 16.6719 24.8152 18.2533 26.4373C19.2856 27.4942 20.3426 28.5182 21.375 29.5669C22.0059 30.2059 22.5876 30.8859 23.2922 31.4512C24.5049 32.4097 26.0862 32.082 26.8072 30.7056C27.3644 29.6406 27.0367 28.5428 26.2747 27.7891C25.7503 27.2648 25.1849 26.7814 24.6933 26.2161C23.9969 25.4296 23.1284 24.7906 22.4483 23.9959C21.6535 23.062 20.7605 22.2345 19.9083 21.3579C18.5728 19.9734 17.1226 18.7035 15.8116 17.3026C15.1234 16.5653 14.3941 15.9263 13.5502 15.3937C12.9193 15.0005 12.2393 14.7793 11.5264 14.5499C10.1909 14.1239 8.84717 14.255 7.52802 14.3697C6.19249 14.4844 4.97985 15.0415 3.83277 15.8279C2.63652 16.6472 1.90731 17.7696 1.24364 18.9575C0.915899 19.5392 0.719257 20.2273 0.514421 20.8909C0.285004 21.6365 0.35055 22.341 0.268614 23.4061V23.3815Z" fill="white"/>
<path id="Vector_3" d="M39.0672 24.4712C39.8947 24.4712 40.5256 23.8568 40.5256 23.0375C40.5256 22.2101 39.821 21.4645 39.0262 21.4727C38.2151 21.4727 37.5186 22.2019 37.5186 23.0293C37.5186 23.7994 38.1413 24.5613 39.059 24.4712H39.0672Z" fill="#DC3545"/>
<path id="Vector_4" d="M24.8434 10.167C25.6628 10.167 26.4329 9.47879 26.4575 8.71688C26.4739 7.97955 25.6464 7.1521 24.8844 7.1521C24.2453 7.1521 23.1883 8.09425 23.2539 8.68411C23.344 9.42963 23.9585 10.126 24.8434 10.167Z" fill="#DC3545"/>
<path id="Vector_5" d="M10.5368 22.9802C10.6679 22.079 9.71748 21.5547 9.08658 21.5547C8.25904 21.5547 7.73466 22.1446 7.73466 23.0294C7.73466 23.9387 8.25904 24.463 9.16032 24.463C10.0288 24.463 10.545 23.906 10.5368 22.9802Z" fill="#DC3545"/>
</g>
</svg>
