<svg xmlns="http://www.w3.org/2000/svg" width="16" height="16" viewBox="0 0 16 16" fill="none">
  <path d="M6.5 0C5.84689 0 5.29127 0.417403 5.08535 1H3.5C2.67157 1 2 1.67157 2 2.5V6.25606C2.46917 6.09023 2.97405 6 3.5 6C5.98528 6 8 8.01472 8 10.5C8 11.1938 7.84243 11.8521 7.56126 12.4399L9.56066 14.4393C9.9827 14.8614 10.1007 15.4723 9.91458 16H12.5C13.3284 16 14 15.3284 14 14.5V2.5C14 1.67157 13.3284 1 12.5 1H10.9146C10.7087 0.417404 10.1531 0 9.5 0H6.5ZM9.5 1C9.77614 1 10 1.22386 10 1.5C10 1.77614 9.77614 2 9.5 2H6.5C6.22386 2 6 1.77614 6 1.5C6 1.22386 6.22386 1 6.5 1H9.5ZM6.30319 12.5961C6.7408 12.0118 7 11.2862 7 10.5C7 8.567 5.433 7 3.5 7C1.567 7 0 8.567 0 10.5C0 12.433 1.567 14 3.5 14C4.28617 14 5.0118 13.7408 5.59609 13.3032L8.14645 15.8536C8.34171 16.0488 8.65829 16.0488 8.85355 15.8536C9.04882 15.6583 9.04882 15.3417 8.85355 15.1464L6.30319 12.5961ZM3.5 13C2.11929 13 1 11.8807 1 10.5C1 9.11929 2.11929 8 3.5 8C4.88071 8 6 9.11929 6 10.5C6 11.8807 4.88071 13 3.5 13Z" fill="black"/>
</svg>