<svg width="16" height="16" viewBox="0 0 16 16" fill="none" xmlns="http://www.w3.org/2000/svg">
    <path d="M14 14C15.1046 14 16 13.1046 16 12V7.41421C16 7.01639 15.842 6.63486 15.5607 6.35355L11.6464 2.43934C11.3651 2.15804 10.9836 2 10.5858 2H2C0.895431 2 0 2.89543 0 4V12C0 13.1046 0.89543 14 2 14L14 14ZM15 12C15 12.5523 14.5523 13 14 13H8L8 3L10 3V6.5C10 7.32843 10.6716 8 11.5 8H15V12ZM7 3L7 13H2C1.44771 13 1 12.5523 1 12L1 4C1 3.44771 1.44772 3 2 3L7 3ZM11 6.5V3.20711L14.7929 7H11.5C11.2239 7 11 6.77614 11 6.5Z" fill="#ADB5BD"/>
</svg>