<svg width="24" height="24" viewBox="0 0 24 24" fill="none" xmlns="http://www.w3.org/2000/svg">
<path d="M11.5 13V20H8.5C7.17452 20 6.08996 18.9685 6.00532 17.6644L6 17.5V13H11.5ZM18 13V17.5C18 18.8255 16.9685 19.91 15.6644 19.9947L15.5 20H12.5V13H18ZM14 4C15.3807 4 16.5 5.11929 16.5 6.5C16.5 7.06324 16.3137 7.58297 15.9995 8.00097L18 8C18.5523 8 19 8.44772 19 9V11C19 11.5523 18.5523 12 18 12H12.5V8H11.5V12H6C5.44772 12 5 11.5523 5 11V9C5 8.44772 5.44772 8 6 8L8.00055 8.00097C7.68626 7.58297 7.5 7.06324 7.5 6.5C7.5 5.11929 8.61929 4 10 4C10.8184 4 11.5449 4.39323 12.001 5.00106C12.4551 4.39323 13.1816 4 14 4ZM14 5C13.1716 5 12.5 5.67157 12.5 6.5V8H14C14.8284 8 15.5 7.32843 15.5 6.5C15.5 5.67157 14.8284 5 14 5ZM10 5C9.17157 5 8.5 5.67157 8.5 6.5C8.5 7.2797 9.09489 7.92045 9.85554 7.99313L10 8H11.5V6.5L11.4931 6.35554C11.4204 5.59489 10.7797 5 10 5Z" fill="#14142B"/>
</svg>
