<svg width="25" height="24" viewBox="0 0 25 24" fill="none" xmlns="http://www.w3.org/2000/svg">
    <path d="M3.42871 4.25C3.42871 3.83579 3.7645 3.5 4.17871 3.5H4.73697C5.68744 3.5 6.25653 4.13899 6.58196 4.73299C6.79888 5.12894 6.95579 5.58818 7.07853 6.00395C7.11178 6.00134 7.14545 6 7.17951 6H19.6768C20.507 6 21.1065 6.79442 20.8789 7.5928L19.0512 14.0019C18.7143 15.1832 17.6349 15.9978 16.4066 15.9978H10.4585C9.22 15.9978 8.13431 15.1699 7.80654 13.9756L7.04605 11.2045L5.78745 6.95578L5.78541 6.94834C5.62971 6.38051 5.48358 5.85005 5.26644 5.4537C5.05557 5.0688 4.88748 5 4.73697 5H4.17871C3.7645 5 3.42871 4.66421 3.42871 4.25ZM9.92871 21C11.0333 21 11.9287 20.1046 11.9287 19C11.9287 17.8954 11.0333 17 9.92871 17C8.82414 17 7.92871 17.8954 7.92871 19C7.92871 20.1046 8.82414 21 9.92871 21ZM16.9287 21C18.0333 21 18.9287 20.1046 18.9287 19C18.9287 17.8954 18.0333 17 16.9287 17C15.8241 17 14.9287 17.8954 14.9287 19C14.9287 20.1046 15.8241 21 16.9287 21Z" fill="#495057"/>
</svg>